<?xml version="1.0" encoding="UTF-8" standalone="no"?><svg xmlns="http://www.w3.org/2000/svg" xmlns:xlink="http://www.w3.org/1999/xlink" contentStyleType="text/css" height="283px" preserveAspectRatio="none" style="width:174px;height:283px;background:#FFFFFF;" version="1.1" viewBox="0 0 174 283" width="174px" zoomAndPan="magnify"><defs/><g><!--MD5=[ac13618b1a974308c1f12eb6c57723dc]
class Event--><g id="elem_Event"><rect codeLine="1" fill="#F1F1F1" height="113.1875" id="Event" rx="2.5" ry="2.5" style="stroke:#181818;stroke-width:0.5;" width="160" x="7" y="7"/><ellipse cx="63.25" cy="23" fill="#ADD1B2" rx="11" ry="11" style="stroke:#181818;stroke-width:1.0;"/><path d="M67.3594,29 L59.6406,29 L59.6406,16.6094 L67.3594,16.6094 L67.3594,18.7656 L62.0938,18.7656 L62.0938,21.4375 L66.8594,21.4375 L66.8594,23.5938 L62.0938,23.5938 L62.0938,26.8438 L67.3594,26.8438 L67.3594,29 Z " fill="#000000"/><text fill="#000000" font-family="sans-serif" font-size="14" lengthAdjust="spacing" textLength="39" x="83.75" y="27.8467">Event</text><line style="stroke:#181818;stroke-width:0.5;" x1="8" x2="166" y1="39" y2="39"/><ellipse cx="18" cy="52.6484" fill="#000000" rx="3" ry="3" style="stroke:#000000;stroke-width:1.0;"/><text fill="#000000" font-family="sans-serif" font-size="14" lengthAdjust="spacing" textLength="40" x="27" y="55.9951">id(PK)</text><line style="stroke:#181818;stroke-width:1.0;" x1="8" x2="166" y1="63.2969" y2="63.2969"/><ellipse cx="18" cy="76.9453" fill="#000000" rx="3" ry="3" style="stroke:#000000;stroke-width:1.0;"/><text fill="#000000" font-family="sans-serif" font-size="14" lengthAdjust="spacing" textLength="134" x="27" y="80.292">member_id(FK) : int</text><ellipse cx="18" cy="93.2422" fill="#000000" rx="3" ry="3" style="stroke:#000000;stroke-width:1.0;"/><text fill="#000000" font-family="sans-serif" font-size="14" lengthAdjust="spacing" textLength="122" x="27" y="96.5889">winner_id(FK) : int</text><text fill="#000000" font-family="sans-serif" font-size="14" lengthAdjust="spacing" textLength="92" x="27" y="112.8857">Name : string</text></g><!--MD5=[f58fd777f29c17413488bea9e7cfcca3]
class Member--><g id="elem_Member"><rect codeLine="9" fill="#F1F1F1" height="96.8906" id="Member" rx="2.5" ry="2.5" style="stroke:#181818;stroke-width:0.5;" width="141" x="16.5" y="180"/><ellipse cx="54.9" cy="196" fill="#ADD1B2" rx="11" ry="11" style="stroke:#181818;stroke-width:1.0;"/><path d="M59.0094,202 L51.2906,202 L51.2906,189.6094 L59.0094,189.6094 L59.0094,191.7656 L53.7438,191.7656 L53.7438,194.4375 L58.5094,194.4375 L58.5094,196.5938 L53.7438,196.5938 L53.7438,199.8438 L59.0094,199.8438 L59.0094,202 Z " fill="#000000"/><text fill="#000000" font-family="sans-serif" font-size="14" lengthAdjust="spacing" textLength="57" x="74.1" y="200.8467">Member</text><line style="stroke:#181818;stroke-width:0.5;" x1="17.5" x2="156.5" y1="212" y2="212"/><ellipse cx="27.5" cy="225.6484" fill="#000000" rx="3" ry="3" style="stroke:#000000;stroke-width:1.0;"/><text fill="#000000" font-family="sans-serif" font-size="14" lengthAdjust="spacing" textLength="70" x="36.5" y="228.9951">id(PK) : int</text><line style="stroke:#181818;stroke-width:1.0;" x1="17.5" x2="156.5" y1="236.2969" y2="236.2969"/><ellipse cx="27.5" cy="249.9453" fill="#000000" rx="3" ry="3" style="stroke:#000000;stroke-width:1.0;"/><text fill="#000000" font-family="sans-serif" font-size="14" lengthAdjust="spacing" textLength="115" x="36.5" y="253.292">event_id(FK) : int</text><text fill="#000000" font-family="sans-serif" font-size="14" lengthAdjust="spacing" textLength="92" x="36.5" y="269.5889">Name : string</text></g><!--MD5=[ca9bd01307a40790b3d92811edaac9cd]
link Event to Member--><g id="link_Event_Member"><path codeLine="16" d="M87,128.47 C87,142.82 87,157.93 87,171.9 " fill="none" id="Event-Member" style="stroke:#181818;stroke-width:1.0;stroke-dasharray:7.0,7.0;"/><line style="stroke:#181818;stroke-width:1.0;" x1="87" x2="93" y1="171.99" y2="179.99"/><line style="stroke:#181818;stroke-width:1.0;" x1="87" x2="81" y1="171.99" y2="179.99"/><line style="stroke:#181818;stroke-width:1.0;" x1="87" x2="87" y1="171.99" y2="179.99"/><line style="stroke:#181818;stroke-width:1.0;" x1="91" x2="83" y1="169.99" y2="169.99"/><line style="stroke:#181818;stroke-width:1.0;" x1="87" x2="81" y1="128.14" y2="120.14"/><line style="stroke:#181818;stroke-width:1.0;" x1="87" x2="93" y1="128.14" y2="120.14"/><line style="stroke:#181818;stroke-width:1.0;" x1="87" x2="87" y1="128.14" y2="120.14"/><line style="stroke:#181818;stroke-width:1.0;" x1="83" x2="91" y1="130.14" y2="130.14"/></g><!--MD5=[8a795c8b879426b38cc2e41291931719]
@startuml
entity Event {
  *id(PK)
  - -
  *member_id(FK) : int
  *winner_id(FK) : int
  Name : string
}

entity Member {
  *id(PK) : int
  - -
  *event_id(FK) : int
  Name : string
}

Event }|..|{ Member
@enduml

PlantUML version 1.2022.7(Mon Aug 22 17:01:30 UTC 2022)
(GPL source distribution)
Java Runtime: OpenJDK Runtime Environment
JVM: OpenJDK 64-Bit Server VM
Default Encoding: UTF-8
Language: en
Country: null
--></g></svg>