<?xml version="1.0" encoding="UTF-8" standalone="no"?><svg xmlns="http://www.w3.org/2000/svg" xmlns:xlink="http://www.w3.org/1999/xlink" contentStyleType="text/css" height="283px" preserveAspectRatio="none" style="width:117px;height:283px;background:#FFFFFF;" version="1.1" viewBox="0 0 117 283" width="117px" zoomAndPan="magnify"><defs/><g><!--MD5=[ac13618b1a974308c1f12eb6c57723dc]
class Event--><g id="elem_Event"><rect codeLine="1" fill="#F1F1F1" height="113.1875" id="Event" rx="2.5" ry="2.5" style="stroke:#181818;stroke-width:0.5;" width="103" x="7" y="7"/><ellipse cx="36.4" cy="23" fill="#ADD1B2" rx="11" ry="11" style="stroke:#181818;stroke-width:1.0;"/><path d="M40.5094,29 L32.7906,29 L32.7906,16.6094 L40.5094,16.6094 L40.5094,18.7656 L35.2438,18.7656 L35.2438,21.4375 L40.0094,21.4375 L40.0094,23.5938 L35.2438,23.5938 L35.2438,26.8438 L40.5094,26.8438 L40.5094,29 Z " fill="#000000"/><text fill="#000000" font-family="sans-serif" font-size="14" lengthAdjust="spacing" textLength="39" x="53.6" y="27.8467">Event</text><line style="stroke:#181818;stroke-width:0.5;" x1="8" x2="109" y1="39" y2="39"/><ellipse cx="18" cy="52.6484" fill="#000000" rx="3" ry="3" style="stroke:#000000;stroke-width:1.0;"/><text fill="#000000" font-family="sans-serif" font-size="14" lengthAdjust="spacing" textLength="12" x="27" y="55.9951">id</text><line style="stroke:#181818;stroke-width:1.0;" x1="8" x2="109" y1="63.2969" y2="63.2969"/><ellipse cx="18" cy="76.9453" fill="#000000" rx="3" ry="3" style="stroke:#000000;stroke-width:1.0;"/><text fill="#000000" font-family="sans-serif" font-size="14" lengthAdjust="spacing" textLength="77" x="27" y="80.292">member_id</text><ellipse cx="18" cy="93.2422" fill="#000000" rx="3" ry="3" style="stroke:#000000;stroke-width:1.0;"/><text fill="#000000" font-family="sans-serif" font-size="14" lengthAdjust="spacing" textLength="65" x="27" y="96.5889">winner_id</text><text fill="#000000" font-family="sans-serif" font-size="14" lengthAdjust="spacing" textLength="40" x="27" y="112.8857">Name</text></g><!--MD5=[f58fd777f29c17413488bea9e7cfcca3]
class Member--><g id="elem_Member"><rect codeLine="9" fill="#F1F1F1" height="96.8906" id="Member" rx="2.5" ry="2.5" style="stroke:#181818;stroke-width:0.5;" width="89" x="14" y="180"/><ellipse cx="29" cy="196" fill="#ADD1B2" rx="11" ry="11" style="stroke:#181818;stroke-width:1.0;"/><path d="M33.1094,202 L25.3906,202 L25.3906,189.6094 L33.1094,189.6094 L33.1094,191.7656 L27.8438,191.7656 L27.8438,194.4375 L32.6094,194.4375 L32.6094,196.5938 L27.8438,196.5938 L27.8438,199.8438 L33.1094,199.8438 L33.1094,202 Z " fill="#000000"/><text fill="#000000" font-family="sans-serif" font-size="14" lengthAdjust="spacing" textLength="57" x="43" y="200.8467">Member</text><line style="stroke:#181818;stroke-width:0.5;" x1="15" x2="102" y1="212" y2="212"/><ellipse cx="25" cy="225.6484" fill="#000000" rx="3" ry="3" style="stroke:#000000;stroke-width:1.0;"/><text fill="#000000" font-family="sans-serif" font-size="14" lengthAdjust="spacing" textLength="12" x="34" y="228.9951">id</text><line style="stroke:#181818;stroke-width:1.0;" x1="15" x2="102" y1="236.2969" y2="236.2969"/><ellipse cx="25" cy="249.9453" fill="#000000" rx="3" ry="3" style="stroke:#000000;stroke-width:1.0;"/><text fill="#000000" font-family="sans-serif" font-size="14" lengthAdjust="spacing" textLength="58" x="34" y="253.292">event_id</text><text fill="#000000" font-family="sans-serif" font-size="14" lengthAdjust="spacing" textLength="40" x="34" y="269.5889">Name</text></g><!--MD5=[ca9bd01307a40790b3d92811edaac9cd]
link Event to Member--><g id="link_Event_Member"><path codeLine="16" d="M58.5,128.47 C58.5,142.82 58.5,157.93 58.5,171.9 " fill="none" id="Event-Member" style="stroke:#181818;stroke-width:1.0;stroke-dasharray:7.0,7.0;"/><line style="stroke:#181818;stroke-width:1.0;" x1="58.5" x2="64.5" y1="171.99" y2="179.99"/><line style="stroke:#181818;stroke-width:1.0;" x1="58.5" x2="52.5" y1="171.99" y2="179.99"/><line style="stroke:#181818;stroke-width:1.0;" x1="58.5" x2="58.5" y1="171.99" y2="179.99"/><line style="stroke:#181818;stroke-width:1.0;" x1="62.5" x2="54.5" y1="169.99" y2="169.99"/><line style="stroke:#181818;stroke-width:1.0;" x1="58.5" x2="52.5" y1="128.14" y2="120.14"/><line style="stroke:#181818;stroke-width:1.0;" x1="58.5" x2="64.5" y1="128.14" y2="120.14"/><line style="stroke:#181818;stroke-width:1.0;" x1="58.5" x2="58.5" y1="128.14" y2="120.14"/><line style="stroke:#181818;stroke-width:1.0;" x1="54.5" x2="62.5" y1="130.14" y2="130.14"/></g><!--MD5=[8e3e2bf67b2a3bcb21106edee4e19865]
@startuml
entity Event {
  *id
  - -
  *member_id
  *winner_id
  Name
}

entity Member {
  *id
  - -
  *event_id
  Name
}

Event }|..|{ Member
@enduml

PlantUML version 1.2022.7(Mon Aug 22 17:01:30 UTC 2022)
(GPL source distribution)
Java Runtime: OpenJDK Runtime Environment
JVM: OpenJDK 64-Bit Server VM
Default Encoding: UTF-8
Language: en
Country: null
--></g></svg>