<?xml version="1.0" encoding="UTF-8" standalone="no"?><svg xmlns="http://www.w3.org/2000/svg" xmlns:xlink="http://www.w3.org/1999/xlink" contentStyleType="text/css" height="283px" preserveAspectRatio="none" style="width:144px;height:283px;background:#FFFFFF;" version="1.1" viewBox="0 0 144 283" width="144px" zoomAndPan="magnify"><defs/><g><!--MD5=[ac13618b1a974308c1f12eb6c57723dc]
class Event--><g id="elem_Event"><rect codeLine="1" fill="#F1F1F1" height="113.1875" id="Event" rx="2.5" ry="2.5" style="stroke:#181818;stroke-width:0.5;" width="130" x="7" y="7"/><ellipse cx="48.55" cy="23" fill="#ADD1B2" rx="11" ry="11" style="stroke:#181818;stroke-width:1.0;"/><path d="M52.6594,29 L44.9406,29 L44.9406,16.6094 L52.6594,16.6094 L52.6594,18.7656 L47.3938,18.7656 L47.3938,21.4375 L52.1594,21.4375 L52.1594,23.5938 L47.3938,23.5938 L47.3938,26.8438 L52.6594,26.8438 L52.6594,29 Z " fill="#000000"/><text fill="#000000" font-family="sans-serif" font-size="14" lengthAdjust="spacing" textLength="39" x="68.45" y="27.8467">Event</text><line style="stroke:#181818;stroke-width:0.5;" x1="8" x2="136" y1="39" y2="39"/><ellipse cx="18" cy="52.6484" fill="#000000" rx="3" ry="3" style="stroke:#000000;stroke-width:1.0;"/><text fill="#000000" font-family="sans-serif" font-size="14" lengthAdjust="spacing" textLength="40" x="27" y="55.9951">id(PK)</text><line style="stroke:#181818;stroke-width:1.0;" x1="8" x2="136" y1="63.2969" y2="63.2969"/><ellipse cx="18" cy="76.9453" fill="#000000" rx="3" ry="3" style="stroke:#000000;stroke-width:1.0;"/><text fill="#000000" font-family="sans-serif" font-size="14" lengthAdjust="spacing" textLength="104" x="27" y="80.292">member_id(FK)</text><ellipse cx="18" cy="93.2422" fill="#000000" rx="3" ry="3" style="stroke:#000000;stroke-width:1.0;"/><text fill="#000000" font-family="sans-serif" font-size="14" lengthAdjust="spacing" textLength="92" x="27" y="96.5889">winner_id(FK)</text><text fill="#000000" font-family="sans-serif" font-size="14" lengthAdjust="spacing" textLength="40" x="27" y="112.8857">Name</text></g><!--MD5=[f58fd777f29c17413488bea9e7cfcca3]
class Member--><g id="elem_Member"><rect codeLine="9" fill="#F1F1F1" height="96.8906" id="Member" rx="2.5" ry="2.5" style="stroke:#181818;stroke-width:0.5;" width="111" x="16.5" y="180"/><ellipse cx="41.4" cy="196" fill="#ADD1B2" rx="11" ry="11" style="stroke:#181818;stroke-width:1.0;"/><path d="M45.5094,202 L37.7906,202 L37.7906,189.6094 L45.5094,189.6094 L45.5094,191.7656 L40.2438,191.7656 L40.2438,194.4375 L45.0094,194.4375 L45.0094,196.5938 L40.2438,196.5938 L40.2438,199.8438 L45.5094,199.8438 L45.5094,202 Z " fill="#000000"/><text fill="#000000" font-family="sans-serif" font-size="14" lengthAdjust="spacing" textLength="57" x="57.6" y="200.8467">Member</text><line style="stroke:#181818;stroke-width:0.5;" x1="17.5" x2="126.5" y1="212" y2="212"/><ellipse cx="27.5" cy="225.6484" fill="#000000" rx="3" ry="3" style="stroke:#000000;stroke-width:1.0;"/><text fill="#000000" font-family="sans-serif" font-size="14" lengthAdjust="spacing" textLength="40" x="36.5" y="228.9951">id(PK)</text><line style="stroke:#181818;stroke-width:1.0;" x1="17.5" x2="126.5" y1="236.2969" y2="236.2969"/><ellipse cx="27.5" cy="249.9453" fill="#000000" rx="3" ry="3" style="stroke:#000000;stroke-width:1.0;"/><text fill="#000000" font-family="sans-serif" font-size="14" lengthAdjust="spacing" textLength="85" x="36.5" y="253.292">event_id(FK)</text><text fill="#000000" font-family="sans-serif" font-size="14" lengthAdjust="spacing" textLength="40" x="36.5" y="269.5889">Name</text></g><!--MD5=[ca9bd01307a40790b3d92811edaac9cd]
link Event to Member--><g id="link_Event_Member"><path codeLine="16" d="M72,128.47 C72,142.82 72,157.93 72,171.9 " fill="none" id="Event-Member" style="stroke:#181818;stroke-width:1.0;stroke-dasharray:7.0,7.0;"/><line style="stroke:#181818;stroke-width:1.0;" x1="72" x2="78" y1="171.99" y2="179.99"/><line style="stroke:#181818;stroke-width:1.0;" x1="72" x2="66" y1="171.99" y2="179.99"/><line style="stroke:#181818;stroke-width:1.0;" x1="72" x2="72" y1="171.99" y2="179.99"/><line style="stroke:#181818;stroke-width:1.0;" x1="76" x2="68" y1="169.99" y2="169.99"/><line style="stroke:#181818;stroke-width:1.0;" x1="72" x2="66" y1="128.14" y2="120.14"/><line style="stroke:#181818;stroke-width:1.0;" x1="72" x2="78" y1="128.14" y2="120.14"/><line style="stroke:#181818;stroke-width:1.0;" x1="72" x2="72" y1="128.14" y2="120.14"/><line style="stroke:#181818;stroke-width:1.0;" x1="68" x2="76" y1="130.14" y2="130.14"/></g><!--MD5=[b939a1ba1f82245b666e871f8b03a795]
@startuml
entity Event {
  *id(PK)
  - -
  *member_id(FK)
  *winner_id(FK)
  Name
}

entity Member {
  *id(PK)
  - -
  *event_id(FK)
  Name
}

Event }|..|{ Member
@enduml

PlantUML version 1.2022.7(Mon Aug 22 17:01:30 UTC 2022)
(GPL source distribution)
Java Runtime: OpenJDK Runtime Environment
JVM: OpenJDK 64-Bit Server VM
Default Encoding: UTF-8
Language: en
Country: null
--></g></svg>