<?xml version="1.0" encoding="UTF-8" standalone="no"?><svg xmlns="http://www.w3.org/2000/svg" xmlns:xlink="http://www.w3.org/1999/xlink" contentStyleType="text/css" height="424px" preserveAspectRatio="none" style="width:123px;height:424px;background:#FFFFFF;" version="1.1" viewBox="0 0 123 424" width="123px" zoomAndPan="magnify"><defs/><g><!--MD5=[675d13b3823b827c8d248b1743c67542]
class Pills--><g id="elem_Pills"><rect codeLine="1" fill="#F1F1F1" height="96.8906" id="Pills" rx="2.5" ry="2.5" style="stroke:#181818;stroke-width:0.5;" width="96" x="13.5" y="7"/><ellipse cx="45.6" cy="23" fill="#ADD1B2" rx="11" ry="11" style="stroke:#181818;stroke-width:1.0;"/><path d="M49.7094,29 L41.9906,29 L41.9906,16.6094 L49.7094,16.6094 L49.7094,18.7656 L44.4438,18.7656 L44.4438,21.4375 L49.2094,21.4375 L49.2094,23.5938 L44.4438,23.5938 L44.4438,26.8438 L49.7094,26.8438 L49.7094,29 Z " fill="#000000"/><text fill="#000000" font-family="sans-serif" font-size="14" lengthAdjust="spacing" textLength="26" x="63.4" y="27.8467">Pills</text><line style="stroke:#181818;stroke-width:0.5;" x1="14.5" x2="108.5" y1="39" y2="39"/><ellipse cx="24.5" cy="52.6484" fill="#000000" rx="3" ry="3" style="stroke:#000000;stroke-width:1.0;"/><text fill="#000000" font-family="sans-serif" font-size="14" lengthAdjust="spacing" textLength="70" x="33.5" y="55.9951">Articul(PK)</text><line style="stroke:#181818;stroke-width:1.0;" x1="14.5" x2="108.5" y1="63.2969" y2="63.2969"/><text fill="#000000" font-family="sans-serif" font-size="14" lengthAdjust="spacing" textLength="40" x="19.5" y="80.292">Name</text><text fill="#000000" font-family="sans-serif" font-size="14" lengthAdjust="spacing" textLength="39" x="19.5" y="96.5889">Stock</text></g><!--MD5=[cf4d6237fcae255cd2e1656cf84a30e2]
class Order--><g id="elem_Order"><rect codeLine="8" fill="#F1F1F1" height="96.8906" id="Order" rx="2.5" ry="2.5" style="stroke:#181818;stroke-width:0.5;" width="95" x="14" y="164"/><ellipse cx="39.8" cy="180" fill="#ADD1B2" rx="11" ry="11" style="stroke:#181818;stroke-width:1.0;"/><path d="M43.9094,186 L36.1906,186 L36.1906,173.6094 L43.9094,173.6094 L43.9094,175.7656 L38.6438,175.7656 L38.6438,178.4375 L43.4094,178.4375 L43.4094,180.5938 L38.6438,180.5938 L38.6438,183.8438 L43.9094,183.8438 L43.9094,186 Z " fill="#000000"/><text fill="#000000" font-family="sans-serif" font-size="14" lengthAdjust="spacing" textLength="39" x="56.2" y="184.8467">Order</text><line style="stroke:#181818;stroke-width:0.5;" x1="15" x2="108" y1="196" y2="196"/><ellipse cx="25" cy="209.6484" fill="#000000" rx="3" ry="3" style="stroke:#000000;stroke-width:1.0;"/><text fill="#000000" font-family="sans-serif" font-size="14" lengthAdjust="spacing" textLength="40" x="34" y="212.9951">id(PK)</text><line style="stroke:#181818;stroke-width:1.0;" x1="15" x2="108" y1="220.2969" y2="220.2969"/><ellipse cx="25" cy="233.9453" fill="#000000" rx="3" ry="3" style="stroke:#000000;stroke-width:1.0;"/><text fill="#000000" font-family="sans-serif" font-size="14" lengthAdjust="spacing" textLength="69" x="34" y="237.292">Articul(FK)</text><text fill="#000000" font-family="sans-serif" font-size="14" lengthAdjust="spacing" textLength="55" x="34" y="253.5889">Number</text></g><!--MD5=[ed6624c6556d5e7b1bd23032162d20b7]
class Client--><g id="elem_Client"><rect codeLine="15" fill="#F1F1F1" height="96.8906" id="Client" rx="2.5" ry="2.5" style="stroke:#181818;stroke-width:0.5;" width="109" x="7" y="321"/><ellipse cx="39.1" cy="337" fill="#ADD1B2" rx="11" ry="11" style="stroke:#181818;stroke-width:1.0;"/><path d="M43.2094,343 L35.4906,343 L35.4906,330.6094 L43.2094,330.6094 L43.2094,332.7656 L37.9438,332.7656 L37.9438,335.4375 L42.7094,335.4375 L42.7094,337.5938 L37.9438,337.5938 L37.9438,340.8438 L43.2094,340.8438 L43.2094,343 Z " fill="#000000"/><text fill="#000000" font-family="sans-serif" font-size="14" lengthAdjust="spacing" textLength="39" x="56.9" y="341.8467">Client</text><line style="stroke:#181818;stroke-width:0.5;" x1="8" x2="115" y1="353" y2="353"/><ellipse cx="18" cy="366.6484" fill="#000000" rx="3" ry="3" style="stroke:#000000;stroke-width:1.0;"/><text fill="#000000" font-family="sans-serif" font-size="14" lengthAdjust="spacing" textLength="40" x="27" y="369.9951">id(PK)</text><line style="stroke:#181818;stroke-width:1.0;" x1="8" x2="115" y1="377.2969" y2="377.2969"/><ellipse cx="18" cy="390.9453" fill="#000000" rx="3" ry="3" style="stroke:#000000;stroke-width:1.0;"/><text fill="#000000" font-family="sans-serif" font-size="14" lengthAdjust="spacing" textLength="83" x="27" y="394.292">order_id(FK)</text><text fill="#000000" font-family="sans-serif" font-size="14" lengthAdjust="spacing" textLength="40" x="27" y="410.5889">Name</text></g><!--MD5=[b4eabd1a63a4ad1f2f93b60573323bf1]
link Order to Client--><g id="link_Order_Client"><path codeLine="22" d="M61.5,269.41 C61.5,283.51 61.5,298.64 61.5,312.73 " fill="none" id="Order-Client" style="stroke:#181818;stroke-width:1.0;stroke-dasharray:7.0,7.0;"/><line style="stroke:#181818;stroke-width:1.0;" x1="65.5" x2="57.5" y1="316.89" y2="316.89"/><line style="stroke:#181818;stroke-width:1.0;" x1="65.5" x2="57.5" y1="313.89" y2="313.89"/><line style="stroke:#181818;stroke-width:1.0;" x1="61.5" x2="61.5" y1="312.89" y2="320.89"/><line style="stroke:#181818;stroke-width:1.0;" x1="61.5" x2="55.5" y1="269.27" y2="261.27"/><line style="stroke:#181818;stroke-width:1.0;" x1="61.5" x2="67.5" y1="269.27" y2="261.27"/><line style="stroke:#181818;stroke-width:1.0;" x1="61.5" x2="61.5" y1="269.27" y2="261.27"/><line style="stroke:#181818;stroke-width:1.0;" x1="57.5" x2="65.5" y1="271.27" y2="271.27"/></g><!--MD5=[e227e4c49f3ff483018b30f74f120ac6]
link Pills to Order--><g id="link_Pills_Order"><path codeLine="23" d="M61.5,112.41 C61.5,126.51 61.5,141.64 61.5,155.73 " fill="none" id="Pills-Order" style="stroke:#181818;stroke-width:1.0;stroke-dasharray:7.0,7.0;"/><line style="stroke:#181818;stroke-width:1.0;" x1="61.5" x2="67.5" y1="155.89" y2="163.89"/><line style="stroke:#181818;stroke-width:1.0;" x1="61.5" x2="55.5" y1="155.89" y2="163.89"/><line style="stroke:#181818;stroke-width:1.0;" x1="61.5" x2="61.5" y1="155.89" y2="163.89"/><line style="stroke:#181818;stroke-width:1.0;" x1="65.5" x2="57.5" y1="153.89" y2="153.89"/><line style="stroke:#181818;stroke-width:1.0;" x1="61.5" x2="55.5" y1="112.27" y2="104.27"/><line style="stroke:#181818;stroke-width:1.0;" x1="61.5" x2="67.5" y1="112.27" y2="104.27"/><line style="stroke:#181818;stroke-width:1.0;" x1="61.5" x2="61.5" y1="112.27" y2="104.27"/><line style="stroke:#181818;stroke-width:1.0;" x1="57.5" x2="65.5" y1="114.27" y2="114.27"/></g><!--MD5=[01aa10b0eb076f20a7770ff468aeb98d]
@startuml
entity Pills {
  *Articul(PK)
  - -
  Name
  Stock
}

entity Order {
  *id(PK)
  - -
  *Articul(FK)
  Number
}

entity Client {
  *id(PK)
  - -
  *order_id(FK)
  Name
}

Order }|..|| Client
Pills }|..|{ Order
@enduml

PlantUML version 1.2022.7(Mon Aug 22 17:01:30 UTC 2022)
(GPL source distribution)
Java Runtime: OpenJDK Runtime Environment
JVM: OpenJDK 64-Bit Server VM
Default Encoding: UTF-8
Language: en
Country: null
--></g></svg>