<?xml version="1.0" encoding="UTF-8" standalone="no"?><svg xmlns="http://www.w3.org/2000/svg" xmlns:xlink="http://www.w3.org/1999/xlink" contentStyleType="text/css" height="424px" preserveAspectRatio="none" style="width:96px;height:424px;background:#FFFFFF;" version="1.1" viewBox="0 0 96 424" width="96px" zoomAndPan="magnify"><defs/><g><!--MD5=[675d13b3823b827c8d248b1743c67542]
class Pills--><g id="elem_Pills"><rect codeLine="1" fill="#F1F1F1" height="96.8906" id="Pills" rx="2.5" ry="2.5" style="stroke:#181818;stroke-width:0.5;" width="68" x="14" y="7"/><ellipse cx="33.5" cy="23" fill="#ADD1B2" rx="11" ry="11" style="stroke:#181818;stroke-width:1.0;"/><path d="M37.6094,29 L29.8906,29 L29.8906,16.6094 L37.6094,16.6094 L37.6094,18.7656 L32.3438,18.7656 L32.3438,21.4375 L37.1094,21.4375 L37.1094,23.5938 L32.3438,23.5938 L32.3438,26.8438 L37.6094,26.8438 L37.6094,29 Z " fill="#000000"/><text fill="#000000" font-family="sans-serif" font-size="14" lengthAdjust="spacing" textLength="26" x="48.5" y="27.8467">Pills</text><line style="stroke:#181818;stroke-width:0.5;" x1="15" x2="81" y1="39" y2="39"/><ellipse cx="25" cy="52.6484" fill="#000000" rx="3" ry="3" style="stroke:#000000;stroke-width:1.0;"/><text fill="#000000" font-family="sans-serif" font-size="14" lengthAdjust="spacing" textLength="42" x="34" y="55.9951">Articul</text><line style="stroke:#181818;stroke-width:1.0;" x1="15" x2="81" y1="63.2969" y2="63.2969"/><text fill="#000000" font-family="sans-serif" font-size="14" lengthAdjust="spacing" textLength="40" x="20" y="80.292">Name</text><text fill="#000000" font-family="sans-serif" font-size="14" lengthAdjust="spacing" textLength="39" x="20" y="96.5889">Stock</text></g><!--MD5=[cf4d6237fcae255cd2e1656cf84a30e2]
class Order--><g id="elem_Order"><rect codeLine="8" fill="#F1F1F1" height="96.8906" id="Order" rx="2.5" ry="2.5" style="stroke:#181818;stroke-width:0.5;" width="81" x="7.5" y="164"/><ellipse cx="27" cy="180" fill="#ADD1B2" rx="11" ry="11" style="stroke:#181818;stroke-width:1.0;"/><path d="M31.1094,186 L23.3906,186 L23.3906,173.6094 L31.1094,173.6094 L31.1094,175.7656 L25.8438,175.7656 L25.8438,178.4375 L30.6094,178.4375 L30.6094,180.5938 L25.8438,180.5938 L25.8438,183.8438 L31.1094,183.8438 L31.1094,186 Z " fill="#000000"/><text fill="#000000" font-family="sans-serif" font-size="14" lengthAdjust="spacing" textLength="39" x="42" y="184.8467">Order</text><line style="stroke:#181818;stroke-width:0.5;" x1="8.5" x2="87.5" y1="196" y2="196"/><ellipse cx="18.5" cy="209.6484" fill="#000000" rx="3" ry="3" style="stroke:#000000;stroke-width:1.0;"/><text fill="#000000" font-family="sans-serif" font-size="14" lengthAdjust="spacing" textLength="12" x="27.5" y="212.9951">id</text><line style="stroke:#181818;stroke-width:1.0;" x1="8.5" x2="87.5" y1="220.2969" y2="220.2969"/><ellipse cx="18.5" cy="233.9453" fill="#000000" rx="3" ry="3" style="stroke:#000000;stroke-width:1.0;"/><text fill="#000000" font-family="sans-serif" font-size="14" lengthAdjust="spacing" textLength="42" x="27.5" y="237.292">Articul</text><text fill="#000000" font-family="sans-serif" font-size="14" lengthAdjust="spacing" textLength="55" x="27.5" y="253.5889">Number</text></g><!--MD5=[ed6624c6556d5e7b1bd23032162d20b7]
class Client--><g id="elem_Client"><rect codeLine="15" fill="#F1F1F1" height="96.8906" id="Client" rx="2.5" ry="2.5" style="stroke:#181818;stroke-width:0.5;" width="82" x="7" y="321"/><ellipse cx="26.95" cy="337" fill="#ADD1B2" rx="11" ry="11" style="stroke:#181818;stroke-width:1.0;"/><path d="M31.0594,343 L23.3406,343 L23.3406,330.6094 L31.0594,330.6094 L31.0594,332.7656 L25.7938,332.7656 L25.7938,335.4375 L30.5594,335.4375 L30.5594,337.5938 L25.7938,337.5938 L25.7938,340.8438 L31.0594,340.8438 L31.0594,343 Z " fill="#000000"/><text fill="#000000" font-family="sans-serif" font-size="14" lengthAdjust="spacing" textLength="39" x="42.05" y="341.8467">Client</text><line style="stroke:#181818;stroke-width:0.5;" x1="8" x2="88" y1="353" y2="353"/><ellipse cx="18" cy="366.6484" fill="#000000" rx="3" ry="3" style="stroke:#000000;stroke-width:1.0;"/><text fill="#000000" font-family="sans-serif" font-size="14" lengthAdjust="spacing" textLength="12" x="27" y="369.9951">id</text><line style="stroke:#181818;stroke-width:1.0;" x1="8" x2="88" y1="377.2969" y2="377.2969"/><ellipse cx="18" cy="390.9453" fill="#000000" rx="3" ry="3" style="stroke:#000000;stroke-width:1.0;"/><text fill="#000000" font-family="sans-serif" font-size="14" lengthAdjust="spacing" textLength="56" x="27" y="394.292">order_id</text><text fill="#000000" font-family="sans-serif" font-size="14" lengthAdjust="spacing" textLength="40" x="27" y="410.5889">Name</text></g><!--MD5=[b4eabd1a63a4ad1f2f93b60573323bf1]
link Order to Client--><g id="link_Order_Client"><path codeLine="22" d="M48,269.41 C48,283.51 48,298.64 48,312.73 " fill="none" id="Order-Client" style="stroke:#181818;stroke-width:1.0;stroke-dasharray:7.0,7.0;"/><line style="stroke:#181818;stroke-width:1.0;" x1="52" x2="44" y1="316.89" y2="316.89"/><line style="stroke:#181818;stroke-width:1.0;" x1="52" x2="44" y1="313.89" y2="313.89"/><line style="stroke:#181818;stroke-width:1.0;" x1="48" x2="48" y1="312.89" y2="320.89"/><line style="stroke:#181818;stroke-width:1.0;" x1="48" x2="42" y1="269.27" y2="261.27"/><line style="stroke:#181818;stroke-width:1.0;" x1="48" x2="54" y1="269.27" y2="261.27"/><line style="stroke:#181818;stroke-width:1.0;" x1="48" x2="48" y1="269.27" y2="261.27"/><line style="stroke:#181818;stroke-width:1.0;" x1="44" x2="52" y1="271.27" y2="271.27"/></g><!--MD5=[e227e4c49f3ff483018b30f74f120ac6]
link Pills to Order--><g id="link_Pills_Order"><path codeLine="23" d="M48,112.41 C48,126.51 48,141.64 48,155.73 " fill="none" id="Pills-Order" style="stroke:#181818;stroke-width:1.0;stroke-dasharray:7.0,7.0;"/><line style="stroke:#181818;stroke-width:1.0;" x1="48" x2="54" y1="155.89" y2="163.89"/><line style="stroke:#181818;stroke-width:1.0;" x1="48" x2="42" y1="155.89" y2="163.89"/><line style="stroke:#181818;stroke-width:1.0;" x1="48" x2="48" y1="155.89" y2="163.89"/><line style="stroke:#181818;stroke-width:1.0;" x1="52" x2="44" y1="153.89" y2="153.89"/><line style="stroke:#181818;stroke-width:1.0;" x1="48" x2="42" y1="112.27" y2="104.27"/><line style="stroke:#181818;stroke-width:1.0;" x1="48" x2="54" y1="112.27" y2="104.27"/><line style="stroke:#181818;stroke-width:1.0;" x1="48" x2="48" y1="112.27" y2="104.27"/><line style="stroke:#181818;stroke-width:1.0;" x1="44" x2="52" y1="114.27" y2="114.27"/></g><!--MD5=[88ccafdde3e881d1e97c85b86af971cf]
@startuml
entity Pills {
  *Articul
  - -
  Name
  Stock
}

entity Order {
  *id
  - -
  *Articul
  Number
}

entity Client {
  *id
  - -
  *order_id
  Name
}

Order }|..|| Client
Pills }|..|{ Order
@enduml

PlantUML version 1.2022.7(Mon Aug 22 17:01:30 UTC 2022)
(GPL source distribution)
Java Runtime: OpenJDK Runtime Environment
JVM: OpenJDK 64-Bit Server VM
Default Encoding: UTF-8
Language: en
Country: null
--></g></svg>